HIERARCHY
ROOT Hips
{
	OFFSET 0.00000 0.00000 0.00000
	CHANNELS 6 Xposition Yposition Zposition Zrotation Yrotation Xrotation 
	JOINT LHipJoint
	{
		OFFSET 0 0 0
		CHANNELS 3 Zrotation Yrotation Xrotation
		JOINT LeftHip
		{
			OFFSET 1.41261 -1.82971 0.84908
			CHANNELS 3 Zrotation Yrotation Xrotation
			JOINT LeftKnee
			{
				OFFSET 2.52554 -6.93888 0.00000
				CHANNELS 3 Zrotation Yrotation Xrotation
				JOINT LeftAnkle
				{
					OFFSET 2.56654 -7.05152 0.00000
					CHANNELS 3 Zrotation Yrotation Xrotation
					JOINT LeftToe
					{
						OFFSET 0.21698 -0.59616 1.85369
						CHANNELS 3 Zrotation Yrotation Xrotation
						End Site
						{
							OFFSET 0.00000 -0.00000 0.97832
						}
					}
				}
			}
		}
	}
	JOINT RHipJoint
	{
		OFFSET 0 0 0
		CHANNELS 3 Zrotation Yrotation Xrotation
		JOINT RightHip
		{
			OFFSET -1.12808 -1.82971 0.84907
			CHANNELS 3 Zrotation Yrotation Xrotation
			JOINT RightKnee
			{
				OFFSET -2.53425 -6.96280 0.00000
				CHANNELS 3 Zrotation Yrotation Xrotation
				JOINT RightAnkle
				{
					OFFSET -2.58413 -7.09983 0.00000
					CHANNELS 3 Zrotation Yrotation Xrotation
					JOINT RightToe
					{
						OFFSET -0.26437 -0.72636 1.92241
						CHANNELS 3 Zrotation Yrotation Xrotation
						End Site
						{
							OFFSET -0.00000 -0.00000 1.02667
						}
					}
				}
			}
		}
	}
	JOINT lowerback
	{
		OFFSET 0 0 0
		CHANNELS 3 Zrotation Yrotation Xrotation
		JOINT Chest
		{
			OFFSET -0.02096 2.02288 -0.14752
			CHANNELS 3 Zrotation Yrotation Xrotation
			JOINT Chest2
			{
				OFFSET 0.03477 2.03136 -0.02358
				CHANNELS 3 Zrotation Yrotation Xrotation
				JOINT lowerneck
				{
					OFFSET 0 0 0
					CHANNELS 3 Zrotation Yrotation Xrotation
					JOINT Neck
					{
						OFFSET 0.00174 1.74359 0.19336
						CHANNELS 3 Zrotation Yrotation Xrotation
						JOINT Head
						{
							OFFSET -0.03054 1.76140 -0.17751
							CHANNELS 3 Zrotation Yrotation Xrotation
							End Site
							{
								OFFSET -0.00863 1.77239 -0.08120
							}
						}
					}
				}
				JOINT LeftCollar
				{
					OFFSET 0 0 0
					CHANNELS 3 Zrotation Yrotation Xrotation
					JOINT LeftShoulder
					{
						OFFSET 3.68685 1.32687 -0.67367
CHANNELS 3 Zrotation Xrotation Yrotation
						JOINT LeftElbow
						{
OFFSET 0 -4.764680 -0.000000
CHANNELS 3 Zrotation Xrotation Yrotation
							JOINT LeftWrist
							{
OFFSET 0 -3.527120 -0.000000
CHANNELS 3 Zrotation Xrotation Yrotation
								JOINT lhand
								{
									OFFSET 0 0 0
CHANNELS 3 Zrotation Xrotation Yrotation
									JOINT LFingers
									{
OFFSET 0 -0.859560 -0.000000
CHANNELS 3 Zrotation Xrotation Yrotation
										End Site
										{
OFFSET 0 -0.693000 -0.000000
										}
									}
								}
								JOINT LThumb
								{
OFFSET 0 0.000000 0.000000
CHANNELS 3 Zrotation Xrotation Yrotation
									End Site
									{
OFFSET 0 -0.703580 0.703580
									}
								}
							}
						}
					}
				}
				JOINT RightCollar
				{
					OFFSET 0 0 0
					CHANNELS 3 Zrotation Yrotation Xrotation
					JOINT RightShoulder
					{
						OFFSET -3.31304 1.28268 -0.97357
CHANNELS 3 Zrotation Xrotation Yrotation
						JOINT RightElbow
						{
OFFSET 0 -4.905770 -0.000000
CHANNELS 3 Zrotation Xrotation Yrotation
							JOINT RightWrist
							{
OFFSET 0 -3.426920 0.000000
CHANNELS 3 Zrotation Xrotation Yrotation
								JOINT rhand
								{
									OFFSET 0 0 0
CHANNELS 3 Zrotation Xrotation Yrotation
									JOINT RFingers
									{
OFFSET 0 -0.740960 -0.000000
CHANNELS 3 Zrotation Xrotation Yrotation
										End Site
										{
OFFSET 0 -0.597380 -0.000000
										}
									}
								}
								JOINT RThumb
								{
OFFSET 0 0.000000 0.000000
CHANNELS 3 Zrotation Xrotation Yrotation
									End Site
									{
OFFSET 0 -0.606500 0.606500
									}
								}
							}
						}
					}
				}
			}
		}
	}
}
MOTION
Frames: 4
Frame Time: 0.008333333333333333
1.241502 8.843905 -1.687553 1.517286 -0.088965 -31.346129 0.000000 0.000000 0.000000 -5.691649 6.944784 -64.838846 29.226236 17.822557 117.955405 0.602202 -24.501798 -21.109369 0.146855 -2.469838 -6.806104 0.000000 0.000000 0.000000 7.685623 -0.335900 -66.958390 -29.260433 -17.805259 118.067119 -1.088472 7.515378 -18.643052 -2.149004 -9.169734 26.327771 -2.627543 1.757133 29.511805 1.474772 1.631769 10.291813 2.614789 0.734208 -4.757048 2.379700 3.908032 -12.768745 -6.102503 5.531972 8.392134 -1.840189 2.401554 4.844880 0.000000 0.000000 0.000000 -3.477391 1.266950 -40.831500 84.373881 -59.880059 55.129603 29.243604 -15.256239 31.329453 0.000000 0.000000 0.000000 -7.125000 0.000000 0.000000 -1.303070 -4.912732 -1.410266 0.000000 0.000000 0.000000 -4.946763 -3.204464 43.087967 -80.516260 -59.657216 -51.796285 -33.086842 25.282893 33.927408 0.000000 0.000000 0.000000 7.125000 0.000000 0.000000 -0.695130 68.738032 0.395901
1.241905 8.845115 -1.688259 1.513857 -0.092494 -31.347188 0.000000 0.000000 0.000000 -5.691346 6.940952 -64.825737 29.222909 17.824271 117.944414 0.602605 -24.495395 -21.107907 0.147964 -2.478913 -6.831313 0.000000 0.000000 0.000000 7.691270 -0.335900 -66.943971 -29.256299 -17.807376 118.053557 -1.087817 7.510135 -18.637557 -2.144013 -9.159802 26.296512 -2.631828 1.752999 29.525014 1.467915 1.624307 10.313039 2.612167 0.730023 -4.738545 2.373701 3.909696 -12.809835 -6.060909 5.531317 8.418401 -1.825568 2.402461 4.858241 0.000000 0.000000 0.000000 -3.469173 1.242851 -40.807299 84.423643 -59.882176 55.172609 29.250612 -15.229518 31.311958 0.000000 0.000000 0.000000 -7.125000 0.000000 0.000000 -1.295810 -4.896195 -1.401997 0.000000 0.000000 0.000000 -4.931688 -3.213791 43.170500 -80.736181 -59.673047 -51.986056 -33.163527 25.317479 34.032024 0.000000 0.000000 0.000000 7.125000 0.000000 0.000000 -0.744589 68.872495 0.426303
1.242152 8.846481 -1.688860 1.521055 -0.091570 -31.344392 0.000000 0.000000 0.000000 -5.704352 6.933787 -64.815129 29.218644 17.826428 117.930480 0.601993 -24.490034 -21.101132 0.148813 -2.485852 -6.850532 0.000000 0.000000 0.000000 7.682150 -0.335848 -66.942313 -29.253467 -17.808817 118.044291 -1.084531 7.511428 -18.609482 -2.150403 -9.172527 26.336560 -2.649266 1.752432 29.535645 1.459183 1.617679 10.329342 2.614754 0.726203 -4.724678 2.366841 3.908521 -12.822434 -6.017856 5.526286 8.429694 -1.811286 2.402119 4.862018 0.000000 0.000000 0.000000 -3.462439 1.232632 -40.786849 84.482208 -59.884632 55.223246 29.244781 -15.221548 31.299177 0.000000 0.000000 0.000000 -7.125000 0.000000 0.000000 -1.296623 -4.881168 -1.402558 0.000000 0.000000 0.000000 -4.919921 -3.217987 43.234725 -80.911828 -59.685518 -52.137648 -33.217711 25.334096 34.107393 0.000000 0.000000 0.000000 7.125000 0.000000 0.000000 -0.778683 68.969065 0.447407
1.242253 8.847994 -1.689365 1.538197 -0.086477 -31.337989 0.000000 0.000000 0.000000 -5.729813 6.923502 -64.806860 29.213501 17.828999 117.913791 0.600430 -24.485648 -21.089385 0.149418 -2.490793 -6.864144 0.000000 0.000000 0.000000 7.659210 -0.335747 -66.952598 -29.251853 -17.809623 118.039048 -1.078783 7.518840 -18.560274 -2.167444 -9.206458 26.443344 -2.679012 1.755205 29.543863 1.448696 1.611831 10.341039 2.622216 0.722724 -4.715149 2.359178 3.904689 -12.808367 -5.973438 5.517161 8.426971 -1.797320 2.400606 4.856825 0.000000 0.000000 0.000000 -3.457095 1.235405 -40.769909 84.549011 -59.887405 55.281024 29.226933 -15.231128 31.290808 0.000000 0.000000 0.000000 -7.125000 0.000000 0.000000 -1.304992 -4.867556 -1.411381 0.000000 0.000000 0.000000 -4.911249 -3.217382 43.281814 -81.046039 -59.694845 -52.253507 -33.250835 25.333894 34.155391 0.000000 0.000000 0.000000 7.125000 0.000000 0.000000 -0.798396 69.030170 0.459809
